# xmcd CD database file
#
# Track frame offsets:
#	150
#	18245
#	41550
#	73502
#	95297
#	113577
#	130872
#	152920
#	178335
#	203332
#	224187
#	251760
#
# Disc length: 3588 seconds
#
# Revision: 0
# Processed by: cddbd v1.5.2PL0 Copyright (c) Steve Scherf et al.
# Submitted via: CDex 1.70beta2
#
DISCID=a70e020c
DTITLE=Grover Washington,Jr., Orchestra Of St. Luke's, Ron Carter, Billy Childs, Robert Freedman - Aria
DYEAR=2000
DGENRE=Jazz
TTITLE0=G.Washington,Jr., Orchestra of St. Luke's, R Carter, B Childs, R Freedman - Je crois entendre encore from Les Pecheurs de Perles
TTITLE1=G.Washington,Jr., Orchestra of St. Luke's, R.Carter, B.Childs, R.Freedman - Pourquoi me reveiller? from Werther
TTITLE2=G.Washington,Jr., Orchestra of St. Luke's, R.Carter, B.Childs, R.Freedman - Flower Duet from Lakme
TTITLE3=G.Washington,Jr., Orchestra of St. Luke's, R.Carter, B.Childs, R.Freedman - Amor ti vieta from Fedora
TTITLE4=G.Washington,Jr., Orchestra of St. Luke's, R.Carter, B.Childs, R.Freedman - O mio babbino caro from Gianni Schicchi
TTITLE5=G.Washington,Jr., Orchestra of St. Luke's, R.Carter, B.Childs, R.Freedman - Donna non vidi mai from Manon Lescaut
TTITLE6=G.Washington,Jr., Orchestra of St. Luke's, R.Carter, B.Childs, R.Freedman - Ch'ella mi creda from La fanciulle del West
TTITLE7=G.Washington,Jr., Orchestra of St. Luke's, R.Carter, B.Childs, R.Freedman - My Man's Gone Now from Porgy and Bess
TTITLE8=G.Washington,Jr., Orchestra of St. Luke's, R.Carter, B.Childs, R.Freedman - O soave fanciulla from La Boheme
TTITLE9=G.Washington,Jr., Orchestra of St. Luke's, R.Carter, B.Childs, R.Freedman - E lucevan le stelle from Tosca
TTITLE10=G.Washington,Jr., Orchestra of St. Luke's, R.Carter, B.Childs, R.Freedman - Au fond du temple saint from Les Pecheurs de Perles
TTITLE11=G.Washington,Jr., Orchestra of St. Luke's, R.Carter, B.Childs, R.Freedman - Vissi d'arte from Tosca
EXTD=YEAR: 2000
EXTT0=
EXTT1=
EXTT2=
EXTT3=
EXTT4=
EXTT5=
EXTT6=
EXTT7=
EXTT8=
EXTT9=
EXTT10=
EXTT11=
PLAYORDER=
